<?xml version="1.0" standalone="no"?>
<!DOCTYPE svg PUBLIC "-//W3C//DTD SVG 20010904//EN"
 "http://www.w3.org/TR/2001/REC-SVG-20010904/DTD/svg10.dtd">
<svg version="1.0" xmlns="http://www.w3.org/2000/svg"
 width="500.000000pt" height="500.000000pt" viewBox="0 0 500.000000 500.000000"
 preserveAspectRatio="xMidYMid meet">
<metadata>
Created by potrace 1.14, written by Peter Selinger 2001-2017
</metadata>
<g transform="translate(0.000000,500.000000) scale(0.100000,-0.100000)"
fill="#000000" stroke="none">
<path d="M2455 4120 c-22 -10 -234 -91 -471 -180 l-432 -163 3 -366 c1 -201 5
-377 8 -391 3 -14 9 -45 12 -70 11 -99 52 -279 66 -295 5 -5 9 -16 9 -25 0 -8
18 -54 39 -103 130 -291 382 -517 734 -656 l77 -31 75 30 c496 197 768 532
845 1040 6 36 13 83 16 105 13 78 13 753 1 763 -7 4 -61 27 -122 50 -60 22
-254 95 -430 162 -176 66 -336 127 -355 134 -30 11 -40 11 -75 -4z m107 -151
c88 -35 712 -271 731 -276 19 -6 19 2 20 -298 1 -181 -7 -368 -18 -420 -3 -11
-7 -38 -10 -60 -54 -387 -274 -687 -630 -863 -126 -62 -148 -68 -192 -53 -47
17 -156 70 -203 99 -19 12 -42 25 -50 29 -8 3 -17 9 -20 12 -3 3 -25 20 -49
36 -116 79 -254 246 -320 390 -114 246 -145 496 -132 1075 l1 45 123 46 c67
26 196 75 287 109 91 34 179 68 195 75 17 7 48 18 70 25 22 7 58 21 80 31 51
23 53 23 117 -2z"/>
<path d="M2386 3431 c-26 -11 -63 -30 -82 -43 l-34 -23 0 -127 0 -127 43 24
c112 63 267 65 389 5 l58 -28 -1 123 c0 141 1 138 -94 181 -81 37 -206 44
-279 15z m144 -76 c0 -20 5 -25 25 -25 19 0 25 -5 25 -20 0 -12 -6 -20 -12
-19 -30 4 -39 -2 -36 -23 2 -18 -3 -24 -20 -26 -19 -3 -23 0 -20 19 2 17 -3
24 -21 29 -33 8 -37 40 -5 40 19 0 24 5 24 25 0 18 5 25 20 25 15 0 20 -7 20
-25z"/>
<path d="M1997 3149 c-49 -8 -86 -36 -114 -85 -21 -36 -22 -49 -19 -189 3
-105 0 -157 -9 -175 -10 -21 -9 -32 9 -70 l21 -45 3 35 c5 49 22 63 22 17 0
-30 5 -39 30 -52 17 -9 31 -20 31 -25 1 -6 2 -14 3 -19 0 -5 4 -12 7 -15 3 -4
3 -26 -2 -49 -9 -52 0 -68 94 -159 118 -116 349 -252 427 -252 20 0 69 16 115
38 177 85 338 216 423 345 45 67 48 76 32 86 -15 9 -12 41 5 59 14 14 21 86
10 98 -3 3 -27 -6 -53 -19 -54 -28 -106 -25 -152 7 -20 14 -30 16 -38 8 -19
-19 -14 -34 16 -49 36 -18 74 -57 63 -63 -4 -3 -23 6 -41 19 -20 15 -48 25
-67 25 -34 0 -44 13 -18 24 16 6 21 26 6 26 -5 0 -17 -8 -27 -17 -10 -10 -20
-16 -23 -14 -3 2 -22 11 -42 21 l-35 18 -43 -29 c-77 -51 -148 -51 -231 0 -49
30 -50 30 -80 13 -27 -15 -32 -16 -57 -2 -39 22 -50 66 -54 215 -4 115 -7 136
-29 179 -39 78 -100 110 -183 95z m158 -170 c9 -17 15 -33 12 -35 -6 -6 -247
-10 -247 -4 1 21 24 30 87 33 44 2 79 10 94 20 32 23 36 22 54 -14z m-135 -73
c0 -35 -64 -53 -76 -21 -11 28 4 45 41 45 30 0 35 -3 35 -24z m128 -3 c-2 -23
-8 -29 -36 -31 -26 -3 -34 1 -41 20 -12 32 -6 38 40 38 38 0 40 -2 37 -27z
m21 -61 c-6 -20 -22 -51 -35 -68 -18 -24 -22 -40 -17 -66 4 -31 1 -38 -25 -57
-34 -24 -63 -27 -95 -9 -42 22 -49 35 -38 72 7 27 6 38 -4 46 -29 24 -58 150
-35 150 6 0 10 -9 10 -20 0 -38 78 -41 95 -2 13 28 19 28 39 -4 25 -36 75 -31
96 11 14 28 15 29 18 7 2 -12 -2 -39 -9 -60z m16 -208 c-1 -15 -6 -29 -12 -31
-8 -3 -10 15 -4 60 3 21 17 -5 16 -29z"/>
<path d="M2447 3149 c-86 -14 -186 -66 -172 -89 3 -5 -2 -10 -10 -14 -20 -7
-19 -31 6 -96 11 -30 25 -68 31 -85 15 -41 62 -108 100 -144 40 -37 96 -56
143 -47 47 9 132 91 162 156 44 97 52 117 64 161 11 43 11 46 -17 76 -60 66
-191 101 -307 82z"/>
<path d="M2915 3147 c-100 -33 -132 -102 -109 -235 7 -43 21 -66 21 -34 0 47
5 61 29 86 30 29 46 34 37 11 -4 -12 7 -10 51 9 64 28 75 26 19 -3 -60 -32
-17 -24 54 9 34 17 65 30 68 30 3 0 5 -10 5 -22 1 -13 7 -34 14 -47 9 -16 11
-35 5 -59 -10 -47 5 -28 25 31 44 131 -12 220 -144 230 -25 2 -58 0 -75 -6z"/>
<path d="M2856 2893 c6 -34 30 -54 58 -48 12 2 24 4 27 4 4 1 9 10 12 21 6 23
37 27 37 5 0 -32 73 -43 92 -13 4 7 8 23 8 36 0 22 -4 23 -55 21 -30 -1 -55
-7 -55 -13 0 -6 -5 -5 -12 2 -7 7 -36 12 -64 12 -52 0 -53 0 -48 -27z m92 8
c1 -1 -2 -10 -8 -21 -18 -34 -80 -22 -67 14 4 10 50 14 75 7z m122 -4 c0 -4 0
-13 0 -21 0 -23 -49 -26 -61 -4 -5 10 -8 22 -5 27 7 10 66 9 66 -2z"/>
<path d="M3110 2635 c0 -43 12 -45 27 -6 9 24 8 31 -4 35 -22 9 -23 8 -23 -29z"/>
<path d="M1890 2565 c0 -8 3 -15 8 -15 4 0 16 -18 26 -40 11 -22 23 -40 28
-40 14 0 9 64 -8 88 -17 25 -54 30 -54 7z"/>
<path d="M3080 2566 c0 -8 4 -17 9 -20 10 -7 23 19 14 28 -11 11 -23 6 -23 -8z"/>
<path d="M2409 1709 c-140 -50 -219 -160 -222 -311 0 -56 4 -77 31 -131 96
-194 328 -250 496 -121 39 30 106 122 106 147 0 4 -34 7 -76 7 -72 0 -77 -1
-101 -30 -33 -39 -70 -58 -119 -61 -136 -8 -225 121 -182 263 22 74 119 135
193 122 48 -8 92 -32 114 -62 18 -26 24 -28 93 -27 67 0 73 2 70 20 -9 59
-121 165 -197 187 -65 18 -149 17 -206 -3z"/>
<path d="M1415 1708 c-2 -7 -3 -150 -2 -317 l2 -305 68 -1 67 -2 1 31 c0 17 1
104 2 194 0 89 4 159 7 155 4 -4 22 -35 40 -68 113 -207 154 -282 164 -295 8
-11 29 -16 79 -16 l67 0 0 318 0 318 -70 0 -70 0 0 -191 c0 -104 -4 -188 -8
-185 -4 2 -25 37 -46 78 -21 40 -65 123 -99 183 l-62 110 -68 3 c-48 2 -69 -1
-72 -10z"/>
<path d="M3090 1402 l0 -317 68 0 67 0 3 128 3 127 103 -1 103 -1 0 -118 c0
-65 3 -122 6 -127 5 -8 104 -11 139 -4 4 0 6 142 5 314 l-2 312 -72 3 c-64 3
-73 1 -74 -15 0 -10 -1 -66 -1 -125 0 -60 -4 -108 -9 -109 -5 0 -47 -1 -94 -1
-47 0 -89 1 -95 1 -6 1 -10 50 -10 126 l0 125 -70 0 -70 0 0 -318z"/>
</g>
</svg>
